<svg width="520" height="720" viewBox="0 0 520 720" fill="none" xmlns="http://www.w3.org/2000/svg">
  <defs>
    <linearGradient id="skin" x1="210" y1="80" x2="310" y2="190" gradientUnits="userSpaceOnUse">
      <stop stop-color="#E7D0A0"/>
      <stop offset="1" stop-color="#B8966C"/>
    </linearGradient>
    <linearGradient id="cloak" x1="170" y1="230" x2="390" y2="640" gradientUnits="userSpaceOnUse">
      <stop stop-color="#161A16"/>
      <stop offset="1" stop-color="#050606"/>
    </linearGradient>
    <linearGradient id="hair" x1="180" y1="35" x2="340" y2="150" gradientUnits="userSpaceOnUse">
      <stop stop-color="#E8D49D"/>
      <stop offset="1" stop-color="#8F7855"/>
    </linearGradient>
    <radialGradient id="glow" cx="0" cy="0" r="1" gradientUnits="userSpaceOnUse" gradientTransform="translate(260 380) rotate(90) scale(330 230)">
      <stop stop-color="#D2AD68" stop-opacity=".34"/>
      <stop offset="1" stop-color="#D2AD68" stop-opacity="0"/>
    </radialGradient>
    <filter id="shadow" x="0" y="0" width="520" height="720" filterUnits="userSpaceOnUse" color-interpolation-filters="sRGB">
      <feDropShadow dx="0" dy="28" stdDeviation="18" flood-color="#000000" flood-opacity=".65"/>
    </filter>
  </defs>

  <ellipse cx="260" cy="390" rx="230" ry="330" fill="url(#glow)"/>
  <g filter="url(#shadow)">
    <!-- cloak/body -->
    <path d="M139 684C153 543 159 392 180 252C187 207 222 181 260 181C298 181 332 207 340 252C361 392 367 543 381 684H139Z" fill="url(#cloak)" stroke="#E8D4A6" stroke-opacity=".17" stroke-width="3"/>
    <path d="M180 252C147 318 118 438 92 604C117 626 145 639 176 645C188 510 196 376 208 246L180 252Z" fill="#0B0D0B" stroke="#E8D4A6" stroke-opacity=".12" stroke-width="3"/>
    <path d="M340 252C373 318 402 438 428 604C403 626 375 639 344 645C332 510 324 376 312 246L340 252Z" fill="#0B0D0B" stroke="#E8D4A6" stroke-opacity=".12" stroke-width="3"/>

    <!-- neck -->
    <path d="M232 162H288V225C274 236 246 236 232 225V162Z" fill="url(#skin)"/>

    <!-- face -->
    <path d="M198 83C203 39 236 25 260 25C284 25 317 39 322 83C327 132 299 173 260 173C221 173 193 132 198 83Z" fill="url(#skin)"/>

    <!-- hair -->
    <path d="M189 83C199 32 232 6 266 13C301 20 329 45 332 95C312 82 294 77 270 70C251 94 224 95 190 122C185 107 185 95 189 83Z" fill="url(#hair)"/>
    <path d="M220 29C204 57 194 81 191 125C178 104 176 69 194 43C203 30 213 24 220 29Z" fill="#B49766"/>
    <path d="M319 61C337 87 334 118 318 143C313 111 299 88 272 70C291 67 306 65 319 61Z" fill="#8C744F"/>

    <!-- calm face lines -->
    <path d="M232 116C242 111 250 111 259 116" stroke="#2C241D" stroke-width="4" stroke-linecap="round" opacity=".6"/>
    <path d="M276 116C285 111 293 111 302 116" stroke="#2C241D" stroke-width="4" stroke-linecap="round" opacity=".6"/>
    <path d="M253 147C259 151 266 151 273 147" stroke="#3A2A21" stroke-width="4" stroke-linecap="round" opacity=".45"/>

    <!-- scarf/collar -->
    <path d="M180 235C213 217 236 212 260 212C284 212 307 217 340 235C325 274 293 296 260 296C227 296 195 274 180 235Z" fill="#1E261C" stroke="#E8D4A6" stroke-opacity=".13" stroke-width="3"/>
    <path d="M217 234C241 250 279 250 303 234" stroke="#D2AD68" stroke-opacity=".45" stroke-width="4" stroke-linecap="round"/>

    <!-- subtle sword/strap -->
    <path d="M143 654L364 238" stroke="#574C38" stroke-width="9" stroke-linecap="round" opacity=".8"/>
    <path d="M150 654L371 238" stroke="#D2AD68" stroke-opacity=".16" stroke-width="3" stroke-linecap="round"/>
  </g>

  <!-- grasses foreground -->
  <path d="M37 706C78 680 105 677 141 704C183 675 226 672 260 704C303 672 341 677 381 704C417 674 455 681 493 706H37Z" fill="#172116"/>
</svg>