<svg width="620" height="760" viewBox="0 0 620 760" fill="none" xmlns="http://www.w3.org/2000/svg">
<defs>
<linearGradient id="hair" x1="218" y1="30" x2="400" y2="175"><stop stop-color="#F1D99D"/><stop offset=".52" stop-color="#C79D56"/><stop offset="1" stop-color="#6E5738"/></linearGradient>
<linearGradient id="skin" x1="245" y1="70" x2="365" y2="210"><stop stop-color="#E7C993"/><stop offset="1" stop-color="#9E7653"/></linearGradient>
<linearGradient id="cloak" x1="190" y1="205" x2="420" y2="710"><stop stop-color="#20261B"/><stop offset=".52" stop-color="#10140F"/><stop offset="1" stop-color="#040504"/></linearGradient>
<radialGradient id="backGlow" cx="0" cy="0" r="1" gradientTransform="translate(310 382) rotate(90) scale(350 260)" gradientUnits="userSpaceOnUse"><stop stop-color="#D7B56A" stop-opacity=".30"/><stop offset=".55" stop-color="#7A8D57" stop-opacity=".13"/><stop offset="1" stop-color="#000" stop-opacity="0"/></radialGradient>
<filter id="shadow" x="-40" y="-40" width="700" height="840"><feDropShadow dx="0" dy="32" stdDeviation="21" flood-color="#000" flood-opacity=".72"/></filter>
</defs>
<ellipse cx="310" cy="390" rx="260" ry="350" fill="url(#backGlow)"/>
<path d="M66 716C110 685 155 682 204 711C247 676 296 680 334 711C383 678 430 683 474 711C510 684 554 690 590 716H66Z" fill="#182014" opacity=".85"/>
<g filter="url(#shadow)">
<path d="M160 720C168 580 174 421 205 264C214 218 252 192 310 192C368 192 406 218 415 264C446 421 452 580 460 720H160Z" fill="url(#cloak)" stroke="#D8BD7A" stroke-opacity=".16" stroke-width="3"/>
<path d="M205 263C162 326 128 477 98 642C128 668 162 684 203 692C213 545 220 401 238 255L205 263Z" fill="#090B08" stroke="#D8BD7A" stroke-opacity=".11" stroke-width="3"/>
<path d="M415 263C458 326 492 477 522 642C492 668 458 684 417 692C407 545 400 401 382 255L415 263Z" fill="#090B08" stroke="#D8BD7A" stroke-opacity=".11" stroke-width="3"/>
<path d="M276 166H344V235C327 248 293 248 276 235V166Z" fill="url(#skin)"/>
<path d="M235 91C242 42 278 26 310 26C342 26 378 42 385 91C392 145 360 191 310 191C260 191 228 145 235 91Z" fill="url(#skin)"/>
<path d="M224 96C232 38 270 3 316 12C363 21 396 57 398 111C378 96 355 86 326 79C304 106 271 107 226 143C219 124 219 108 224 96Z" fill="url(#hair)"/>
<path d="M255 20C229 56 219 93 225 145C203 121 202 76 225 43C236 26 249 15 255 20Z" fill="#BA8F4E"/>
<path d="M382 62C402 96 396 136 374 164C371 127 353 98 326 79C350 74 368 69 382 62Z" fill="#8E6F3E"/>
<path d="M287 18C276 49 263 70 235 91" stroke="#F0D99C" stroke-opacity=".55" stroke-width="8" stroke-linecap="round"/>
<path d="M337 24C346 52 363 71 390 92" stroke="#F0D99C" stroke-opacity=".36" stroke-width="8" stroke-linecap="round"/>
<path d="M276 129C288 123 300 123 311 130" stroke="#2D2118" stroke-width="4" stroke-linecap="round" opacity=".6"/>
<path d="M332 130C343 123 355 123 367 129" stroke="#2D2118" stroke-width="4" stroke-linecap="round" opacity=".6"/>
<path d="M302 162C311 168 321 168 330 162" stroke="#392A1F" stroke-width="4" stroke-linecap="round" opacity=".45"/>
<path d="M202 254C240 228 274 220 310 220C346 220 380 228 418 254C401 300 360 330 310 330C260 330 219 300 202 254Z" fill="#27301F" stroke="#D8BD7A" stroke-opacity=".15" stroke-width="3"/>
<path d="M250 255C284 276 337 276 371 255" stroke="#D2AD68" stroke-opacity=".55" stroke-width="5" stroke-linecap="round"/>
<path d="M163 707L420 246" stroke="#5D4A2F" stroke-width="10" stroke-linecap="round" opacity=".82"/>
<path d="M172 707L429 246" stroke="#D8BD7A" stroke-opacity=".18" stroke-width="3" stroke-linecap="round"/>
</g>
</svg>